<svg viewBox="0 0 64 88">
<g>
  <path fill="#000000"
    d="m9 0c-0.53 0-1.04 0.21-1.41 0.59l-7 7c-0.38 0.37-0.59 0.88-0.59 1.41v77c0 1.1 0.9 2 2 2h53c0.53 0 1.04-0.21 1.41-0.59
    l7-7c0.38-0.37 0.59-0.88 0.59-1.41v-77c0-1.1-0.9-2-2-2h-53z"/>
  <path fill="#9F9F9F" d="m11.75 78.25l-9 9h52.25c0.33 0 0.65-0.13 0.88-0.37l7-7c0.23-0.23 0.37-1.3 0.37-1.63h-51.5z"/>
  <path fill="#D7D7D7" d="m8.12 1.12l-7 7c-0.24 0.23-0.37 0.55-0.37 0.88v76.25l2 2 7-7v-79.5c-0.33 0-1.4 0.13-1.63 0.37z"/>
  <path fill="#BFBFBF" d="m1.61 86.89l10.14-10.14v-0.5l-10.41 10.41c0.08 0.09 0.17 0.16 0.27 0.23z"/>
  <path fill="#B7B7B7" d="m1.93 87.07l9.82-9.82v-0.5l-10.14 10.14c0.1 0.07 0.21 0.13 0.32 0.18z"/>
  <path fill="#AFAFAF" d="m2.3 87.2l9.45-9.45v-0.5l-9.82 9.82c0.12 0.05 0.24 0.1 0.37 0.13z"/>
  <path fill="#A7A7A7" d="m11.75 77.75l-9.45 9.45c0.14 0.03 0.29 0.05 0.45 0.05l9-9v-0.5z"/>
  <path fill="#C7C7C7" d="m1.34 86.66l10.41-10.41h-0.5l-10.14 10.14c0.07 0.1 0.14 0.19 0.23 0.27z"/>
  <path fill="#CDCDCD" d="m1.11 86.39l10.14-10.14h-0.5l-9.82 9.82c0.05 0.11 0.11 0.22 0.18 0.32z"/>
  <path fill="#D2D2D2" d="m0.93 86.07l9.82-9.82h-0.5l-9.45 9.45c0.03 0.13 0.08 0.25 0.13 0.37z"/>
  <path fill="#D7D7D7" d="m10.25 76.25h-0.5l-9 9c0 0.15 0.02 0.3 0.05 0.45l9.45-9.45z"/>
  <path fill="#F6F6F6" d="m63.25 78.25v-75.5c0-1.1-0.9-2-2-2h-50.5c-1.1 0-2 0.9-2 2v75.5c0 1.1 0.9 2 2 2h50.5c1.1 0 2-0.9 2-2z"/>
  <path fill="#fff" d="m8.75 78.25v-75.5c0-1.1 0.9-2 2-2h-1c-1.1 0-2 0.9-2 2v75.5c0 1.1 0.9 2 2 2h1c-1.1 0-2-0.9-2-2z"/>
</g>
<g stroke="#10106C" fill="none">
  <path stroke-width=".75"
    d="m49.4 40.5c0 7.7-6.2 13.9-13.9 13.9s-13.9-6.2-13.9-13.9 6.2-13.9 13.9-13.9 13.9 6.2 13.9 13.9z"/>
  <circle r="6.5" cy="40.5" cx="42" stroke-width="1.6"/>
  <circle r="6.5" cy="40.5" cx="29" stroke-width="1.6"/>
  <circle r="6.5" cy="34" cx="35.5" stroke-width="1.6"/>
  <circle r="6.5" cy="47" cx="35.5" stroke-width="1.6"/>
  <path stroke-width=".75"
    d="m44.8 40.5c0 5.1-4.2 9.3-9.3 9.3s-9.3-4.2-9.3-9.3c0-5.1 4.2-9.3 9.3-9.3s9.3 4.2 9.3 9.3z"/>
  <path stroke="#BA0000" stroke-width="2"
    d="m52.2 40.5c0 9.2-7.5 16.7-16.7 16.7s-16.7-7.5-16.7-16.7 7.5-16.7 16.7-16.7 16.7 7.5 16.7 16.7z"/>
  <path stroke-width=".75"
    d="m55 40.5c0 10.8-8.7 19.5-19.5 19.5s-19.5-8.7-19.5-19.5 8.7-19.5 19.5-19.5 19.5 8.7 19.5 19.5z"/>
</g>
</svg>
